<svg xmlns="http://www.w3.org/2000/svg" xmlns:xlink="http://www.w3.org/1999/xlink" width="1366" zoomAndPan="magnify" viewBox="0 0 1024.5 576" height="768" preserveAspectRatio="xMidYMid meet" version="1.0"><defs><clipPath id="ea4f7ec307"><path d="M 0 0.140625 L 1024 0.140625 L 1024 575.859375 L 0 575.859375 Z M 0 0.140625 " clip-rule="nonzero"/></clipPath><clipPath id="7d5a65a882"><path d="M 473 149 L 655 149 L 655 370 L 473 370 Z M 473 149 " clip-rule="nonzero"/></clipPath><clipPath id="27adfc5558"><path d="M 417.328125 201.261719 L 549.941406 105.761719 L 684.425781 292.515625 L 551.8125 388.015625 Z M 417.328125 201.261719 " clip-rule="nonzero"/></clipPath><clipPath id="d33b61edf9"><path d="M 417.328125 201.261719 L 549.941406 105.761719 L 684.425781 292.515625 L 551.8125 388.015625 Z M 417.328125 201.261719 " clip-rule="nonzero"/></clipPath></defs><g clip-path="url(#ea4f7ec307)"><path fill="#ffffff" d="M 0 0.140625 L 1024 0.140625 L 1024 575.859375 L 0 575.859375 Z M 0 0.140625 " fill-opacity="1" fill-rule="nonzero"/><path fill="#03266e" d="M 0 0.140625 L 1024 0.140625 L 1024 575.859375 L 0 575.859375 Z M 0 0.140625 " fill-opacity="1" fill-rule="nonzero"/></g><path fill="#000000" d="M 425.164062 193.710938 C 467.941406 182.9375 461.0625 147.980469 509.546875 148.953125 C 558.027344 149.929688 576.765625 135.996094 592.925781 169.855469 C 609.085938 203.714844 639.867188 219.875 626.015625 246.039062 C 612.164062 272.207031 640.636719 319.917969 603.699219 329.152344 C 566.761719 338.386719 611.394531 418.421875 554.449219 424.578125 C 497.5 430.734375 467.488281 413.628906 463.640625 381.394531 C 459.792969 349.160156 378.21875 363.011719 358.980469 334.539062 C 339.742188 306.066406 362.257812 280.796875 373.601562 262.972656 C 395.152344 229.109375 364.367188 222.953125 379.757812 195.25 C 393.5 170.515625 414.148438 196.484375 425.164062 193.710938 Z M 425.164062 193.710938 " fill-opacity="1" fill-rule="nonzero"/><g clip-path="url(#7d5a65a882)"><g clip-path="url(#27adfc5558)"><g clip-path="url(#d33b61edf9)"><path fill="#000000" d="M 539.175781 155.910156 C 518.859375 145.710938 494.355469 145.792969 478.875 166.421875 C 475.417969 171.023438 472.816406 202.753906 474.046875 210.320312 C 487.648438 294.074219 539.636719 225.480469 539.078125 295.726562 C 538.492188 369.488281 556.378906 375.082031 570.25 367.40625 C 584.117188 359.730469 591.863281 326.015625 633.96875 323.25 C 642.792969 322.671875 661.289062 301.847656 651.792969 269.417969 C 642.296875 236.988281 640.121094 237.976562 619.34375 205.910156 C 598.5625 173.847656 559.496094 166.109375 539.175781 155.910156 Z M 539.175781 155.910156 " fill-opacity="1" fill-rule="nonzero"/></g></g></g></svg>